#!OML:ASF F:\VICON\USERDATA\INSTALL\rory3\rory3.ASF
:FULLY-SPECIFIED
:DEGREES
81
root -0.222034309302291 17.618707190396275 24.786474650597626 -1.4115817131415813 -3.4994015540560213 -7.071473533604744
lfemur -18.431331992533995 -2.7875872961680637 -11.602527409251461
ltibia 22.034196481689463
lfoot -4.701218869907266 0.05864790444632173
ltoes -11.114899658288024
rfemur 1.5152575646538065 7.9197234628640825 33.62733200064959
rtibia 29.722305374828863
rfoot -3.161306801265055 -6.069638877468713
rtoes 4.61078389707384
lowerback 9.098641346244147 2.257632489593511 6.6123771562813065
upperback -0.13732341554941346 3.996120332749358 1.934349718762923
thorax -5.13372756241637 1.805141303940283 -2.056464301970003
lowerneck -16.112968634851995 -2.8177138101896433 -1.8849081591919863
upperneck 20.50626081833374 -3.4710860923938336 0.3839091599243292
head 9.159425621705847 -1.6669357533300977 0.021910010262817636
lclavicle -1.9543432278377468e-15 9.058197916989479e-16
lhumerus -34.095617546727595 1.4321123146763892 82.95170807041211
lradius 27.957691140783457
lwrist 7.4527851723707155
lhand -26.644042466729648 23.37535882560686
lfingers 7.12502
lthumb -0.0881685043314937 53.42230894492599
rclavicle -1.9484874099929353e-15 9.105169805824462e-16
rhumerus -27.054611382285263 -14.56952332374209 -80.85561932641005
rradius 27.107036440086446
rwrist 2.3113788640497868
rhand -18.243932010634268 23.53318555584922
rfingers 7.12502
rthumb 8.024375455005092 -6.3585030003278815
82
root -0.1275987564396383 17.428723464684538 25.4703565909191 -1.7600624885045353 -3.2811337061267674 -6.964611449809706
lfemur -18.48578946942999 -2.4516823894542688 -11.9222339219641
ltibia 21.023142544522962
lfoot -3.188544451343059 0.10493593798539935
ltoes -10.464964580878231
rfemur 3.056574104430789 7.477299224886272 33.38809636546481
rtibia 30.64157513500855
rfoot -2.215010841107655 -6.034547373527664
rtoes 4.282132730129446
lowerback 8.803563345146538 2.412095123596462 6.58258905637596
upperback -0.09310933522360909 4.152231048130848 1.8579742529753354
thorax -5.064291966313323 1.9020050969055464 -2.1082284655212473
lowerneck -16.103957277329012 -2.819863121883877 -1.81954736377229
upperneck 20.47189705078765 -3.48332664592799 0.3641865728188269
head 9.158081631148088 -1.6736088788185264 -0.029668868754884836
lclavicle -1.954418374924086e-15 9.057719042517374e-16
lhumerus -34.72844430264971 1.2052521242453615 82.8735565014041
lradius 28.529291134510213
lwrist 7.365092445552106
lhand -26.604825038255065 23.375731320483798
lfingers 7.12502
lthumb -0.08790386518270554 53.34638768980622
rclavicle -1.9497113599045845e-15 9.09393216040449e-16
rhumerus -27.096797395446508 -14.903827190411508 -80.86688165644135
rradius 27.28772883961442
rwrist 2.1561419672184927
rhand -18.375101838282085 24.102541210229454
rfingers 7.12502
rthumb 7.96961749019312 -5.699139198417248
83
root 0.008254415302536677 17.30536283737514 26.298144419321158 -2.0714685897487706 -2.5075744078492153 -6.563184249705909
lfemur -18.627826869414783 -2.378797663199267 -12.810965306227601
ltibia 21.90120306460214
lfoot -3.4125001247151516 -1.3933352835112247
ltoes -11.272554285426237
rfemur 4.295542285350759 6.704068594973933 33.01174020224511
rtibia 32.61010104202467
rfoot -1.1278701267782498 -6.061501668972633
rtoes 4.530517590358139
lowerback 8.356963616024913 2.3737586849467793 6.364288211047882
upperback -0.10371133229384105 4.104688667796173 1.7403891317749616
thorax -5.097460087389378 1.9108285754415644 -1.942332136996026
lowerneck -16.049636803277444 -2.8343665680443 -1.7804976529344412
upperneck 20.461317856659797 -3.5221557673064243 0.40935438703612537
head 9.165198183421312 -1.6889599527331967 -0.05901269250068808
lclavicle -1.955587183744127e-15 9.047117452096157e-16
lhumerus -34.989606890151045 1.218787981747771 82.83812653536528
lradius 29.03021210570397
lwrist 7.232740375337731
lhand -26.51933278787579 23.511389165302734
lfingers 7.12502
lthumb -0.07697010905016821 53.32806732537969
rclavicle -1.951327552038052e-15 9.079780332489593e-16
rhumerus -27.172484291201506 -15.086406071759072 -80.90491870188053
rradius 27.30253940851242
rwrist 2.2036542623973254
rhand -18.447697189568558 24.434083572374124
rfingers 7.12502
rthumb 7.929483054034436 -5.3010413310726765
84
root 0.19063738913422495 17.312270982812937 26.71357330641092 -2.1394442769951976 -2.211433357641829 -5.99808333926008
lfemur -18.572931125496495 -2.2466161355671908 -13.977510962052824
ltibia 24.2533559759176
lfoot -2.5748786132901413 -1.7482390845472993
ltoes -10.781069525482101
rfemur 4.856081669638979 5.941886153395153 32.13765896588641
rtibia 35.63225143234282
rfoot 0.07372489048965747 -6.357880232075928
rtoes 5.259205311901425
lowerback 7.784288090093293 2.3416156839324644 6.175022925451855
upperback -0.11820491663018601 4.039148009203159 1.5820249753826545
thorax -5.190778502070202 1.8902853244211277 -1.7407984442213826
lowerneck -15.95602899298611 -2.8493331800812887 -1.7510220026827479
upperneck 20.494103989909938 -3.5690324903144246 0.48169246099409246
head 9.18370277426261 -1.706632354660703 -0.0762278126072822
lclavicle -1.9561823303056336e-15 9.04157726225209e-16
lhumerus -35.240894629644785 1.3775373159937832 82.68704418340072
lradius 29.416837305479532
lwrist 7.029423198396718
lhand -26.43373429983127 23.665459538622645
lfingers 7.12502
lthumb -0.04647816292507134 53.34915619917037
rclavicle -1.952904987375401e-15 9.066181668251473e-16
rhumerus -27.254758975212503 -15.143506073863662 -80.85023255811834
rradius 27.108714799389897
rwrist 2.4262877188380694
rhand -18.480418063057304 24.531847467894274
rfingers 7.12502
rthumb 7.9078470854325165 -5.170125255924475
85
root 0.37181611745120585 17.256308665023774 26.862242193162594 -2.5015780163614285 -2.5262398154421626 -4.988782630966314
lfemur -18.175175299158578 -1.974048570241952 -15.549689291348546
ltibia 27.251305870267224
lfoot -2.385989987505656 -2.8633877304958277
ltoes -10.937298031220115
rfemur 4.183909998690503 5.396231371605461 30.620019327617005
rtibia 40.04642125052841
rfoot 1.0294369453118062 -7.21361594056207
rtoes 6.051879539963258
lowerback 7.917992545444942 2.427819557206724 5.6967705049290105
upperback -0.13592602793354341 3.9930776710417932 1.374535475532719
thorax -5.351020610061586 1.8516758967688074 -1.532014077920528
lowerneck -15.869424015780307 -2.8633377794126473 -1.7461068539293734
upperneck 20.58296316123075 -3.614574050643865 0.5661951395153098
head 9.220948701568735 -1.7242914058880932 -0.08499549100790618
lclavicle -1.9560212909656635e-15 9.042870808231488e-16
lhumerus -35.253430232614306 1.7429774506738758 82.5316117960181
lradius 29.5575519162815
lwrist 6.75673841956406
lhand -26.355182185178794 23.77722317438037
lfingers 7.12502
lthumb 0.013297073309561425 53.386620322542406
rclavicle -1.954107426151422e-15 9.055021171111675e-16
rhumerus -27.308866083257197 -15.064934950459316 -80.74014223432727
rradius 26.78489835235317
rwrist 2.821729012513272
rhand -18.483675074279798 24.472318125271023
rfingers 7.12502
rthumb 7.925368333104328 -5.21445784724859
86
root 0.558705882470847 17.259846184835077 24.01384662942832 -2.6296390635520357 -3.6631235248579603 -4.04355513250351
lfemur -17.56605409495831 -1.8394516612157121 -17.073166835308005
ltibia 30.49292183603679
lfoot -2.1549382389577514 -3.0989909363705923
ltoes -10.905111775991513
rfemur 2.3712246197098104 5.433772831102075 28.92709437132689
rtibia 45.2231947177551
rfoot 1.0616585718309626 -8.69706451005282
rtoes 6.386825019246544
lowerback 8.565094279995556 2.7310380928095586 5.1878210531996825
upperback -0.0450346261272091 4.216065549628649 1.1890437509702434
thorax -5.409525729694415 1.9293505046277806 -1.4076011245684579
lowerneck -15.815101565885087 -2.8832816689903793 -1.788993336254288
upperneck 20.71030411617801 -3.665000117355803 0.6737121257189393
head 9.272507471497837 -1.7447301372892774 -0.08328737895902569
lclavicle -1.9558007095193804e-15 9.044867403129232e-16
lhumerus -35.37177658506113 1.953125776967144 82.29730085409194
lradius 29.674737795539286
lwrist 6.380797955368573
lhand -26.278781507233113 23.828334540373596
lfingers 7.12502
lthumb 0.10776796911502995 53.43869979176031
rclavicle -1.954906179206706e-15 9.047313846602567e-16
rhumerus -27.471609634442142 -15.12029664295484 -80.59476630985044
rradius 26.491225811730267
rwrist 3.3091537864913683
rhand -18.42493276358971 24.330226897975578
rfingers 7.12502
rthumb 7.991543644840992 -5.376276066462988
87
root 0.6395676286381521 17.250240749071693 22.840656681415766 -2.9941050533620226 -5.176634612808645 -3.4154897519548966
lfemur -16.788176252035356 -2.063112648685469 -18.100015740471875
ltibia 33.42436871363111
lfoot -3.2159441123586894 -3.1966301638974297
ltoes -11.71556669493069
rfemur -0.08834260011178507 5.890816553715961 27.565555583941904
rtibia 50.246540664875
rfoot 0.42024846760563506 -9.962515239469123
rtoes 6.359137001140024
lowerback 9.334885093537329 3.005237943275847 4.512088668037477
upperback 0.19093984609922182 4.384539194393106 1.0030366290453425
thorax -5.331802298786039 2.02279518425192 -1.277976860329161
lowerneck -15.796047471868684 -2.894957016408439 -1.8321189576875458
upperneck 20.840029628092754 -3.6977956059488624 0.7593094491793966
head 9.324907520948885 -1.7601685699059744 -0.0849197076358379
lclavicle -1.9560106831643983e-15 9.042965107523238e-16
lhumerus -35.20615371615604 2.2970414044906367 82.11666213355338
lradius 29.722744481695123
lwrist 5.91218926841027
lhand -26.2301591431764 23.773672627557875
lfingers 7.12502
lthumb 0.1996667010858827 53.462520878601026
rclavicle -1.955531527472611e-15 9.041532946711759e-16
rhumerus -27.667686612309957 -15.239903082365718 -80.44880616842828
rradius 26.262697702685376
rwrist 3.745609480844951
rhand -18.28859461758973 24.09964545320677
rfingers 7.12502
rthumb 8.100210393352757 -5.673315912023788
